<?xml version="1.0" encoding="UTF-8" standalone="no"?>
<svg
   enable-background="new 0 0 24 24"
   height="24px"
   viewBox="0 0 24 24"
   width="24px"
   fill="#000000"
   version="1.1"
   id="svg12"
   sodipodi:docname="material_restart.svg"
   inkscape:version="1.1 (c4e8f9ed74, 2021-05-24)"
   xmlns:inkscape="http://www.inkscape.org/namespaces/inkscape"
   xmlns:sodipodi="http://sodipodi.sourceforge.net/DTD/sodipodi-0.dtd"
   xmlns="http://www.w3.org/2000/svg"
   xmlns:svg="http://www.w3.org/2000/svg">
  <defs
     id="defs16" />
  <sodipodi:namedview
     id="namedview14"
     pagecolor="#ffffff"
     bordercolor="#666666"
     borderopacity="1.0"
     inkscape:pageshadow="2"
     inkscape:pageopacity="0.0"
     inkscape:pagecheckerboard="0"
     showgrid="false"
     inkscape:zoom="21.208333"
     inkscape:cx="12.023576"
     inkscape:cy="12.023576"
     inkscape:window-width="1680"
     inkscape:window-height="1022"
     inkscape:window-x="1366"
     inkscape:window-y="0"
     inkscape:window-maximized="1"
     inkscape:current-layer="svg12" />
  <g
     id="g4">
    <path
       d="M0,0h24v24H0V0z"
       fill="none"
       id="path2" />
  </g>
  <g
     id="g10"
     style="fill:#c8b7b7">
    <g
       id="g8"
       style="fill:#c8b7b7">
      <path
         d="M 6,13 C 6,11.35 6.67,9.85 7.76,8.76 L 6.34,7.34 C 4.9,8.79 4,10.79 4,13 c 0,4.08 3.05,7.44 7,7.93 V 18.91 C 8.17,18.43 6,15.97 6,13 Z m 14,0 C 20,8.58 16.42,5 12,5 11.94,5 11.88,5.01 11.82,5.01 L 12.91,3.92 11.5,2.5 8,6 11.5,9.5 12.91,8.09 11.83,7.01 C 11.89,7.01 11.95,7 12,7 c 3.31,0 6,2.69 6,6 0,2.97 -2.17,5.43 -5,5.91 v 2.02 c 3.95,-0.49 7,-3.85 7,-7.93 z"
         id="path6"
         style="fill:#c8b7b7" />
    </g>
  </g>
</svg>
