<?xml version="1.0" encoding="UTF-8" standalone="no"?>
<svg
   height="24px"
   viewBox="0 0 24 24"
   width="24px"
   fill="#000000"
   version="1.1"
   id="svg6"
   sodipodi:docname="create_black_24dp.svg"
   inkscape:version="1.1 (c4e8f9ed74, 2021-05-24)"
   xmlns:inkscape="http://www.inkscape.org/namespaces/inkscape"
   xmlns:sodipodi="http://sodipodi.sourceforge.net/DTD/sodipodi-0.dtd"
   xmlns="http://www.w3.org/2000/svg"
   xmlns:svg="http://www.w3.org/2000/svg">
  <defs
     id="defs10">
    <filter
       inkscape:collect="always"
       style="color-interpolation-filters:sRGB"
       id="filter1681"
       x="-0.090219881"
       y="-0.090232414"
       width="1.1804398"
       height="1.1804648">
      <feGaussianBlur
         inkscape:collect="always"
         stdDeviation="0.67674311"
         id="feGaussianBlur1683" />
    </filter>
  </defs>
  <sodipodi:namedview
     id="namedview8"
     pagecolor="#ffffff"
     bordercolor="#666666"
     borderopacity="1.0"
     inkscape:pageshadow="2"
     inkscape:pageopacity="0.0"
     inkscape:pagecheckerboard="0"
     showgrid="false"
     inkscape:zoom="11.402404"
     inkscape:rotation="1"
     inkscape:cx="10.429317"
     inkscape:cy="8.3635746"
     inkscape:window-width="1366"
     inkscape:window-height="703"
     inkscape:window-x="0"
     inkscape:window-y="0"
     inkscape:window-maximized="1"
     inkscape:current-layer="svg6" />
  <path
     d="M0 0h24v24H0V0z"
     fill="none"
     id="path2" />
  <path
     d="M3 17.25V21h3.75L17.81 9.94l-3.75-3.75L3 17.25zM5.92 19H5v-.92l9.06-9.06.92.92L5.92 19zM20.71 5.63l-2.34-2.34c-.2-.2-.45-.29-.71-.29s-.51.1-.7.29l-1.83 1.83 3.75 3.75 1.83-1.83c.39-.39.39-1.02 0-1.41z"
     id="path4"
     style="stroke:none;stroke-opacity:1;fill:#00ff9c;fill-opacity:1" />
  <path
     d="M 3,17.25 V 21 H 6.75 L 17.81,9.94 14.06,6.1900003 Z M 5.92,19 H 5 v -0.92 l 9.06,-9.06 0.92,0.92 z m 14.79,-13.3699997 -2.34,-2.34 c -0.2,-0.2 -0.45,-0.29 -0.71,-0.29 -0.26,0 -0.51,0.1 -0.7,0.29 l -1.83,1.83 L 18.88,8.87 20.71,7.04 c 0.39,-0.39 0.39,-1.0199997 0,-1.4099997 z"
     id="path4-6"
     style="fill:#00ff9c;fill-opacity:1;stroke:none;stroke-opacity:1;filter:url(#filter1681)" />
</svg>
